<?xml version="1.0" standalone="no"?>
<!DOCTYPE svg PUBLIC "-//W3C//DTD SVG 1.1//EN" "http://www.w3.org/Graphics/SVG/1.1/DTD/svg11.dtd" >
<svg xmlns="http://www.w3.org/2000/svg">
<metadata></metadata>
<defs>
<font id="albattarregular" horiz-adv-x="1137" >
<font-face units-per-em="2048" ascent="1556" descent="-492" />
<missing-glyph horiz-adv-x="568" />
<glyph horiz-adv-x="0" />
<glyph horiz-adv-x="0" />
<glyph unicode="&#xd;" horiz-adv-x="680" />
<glyph horiz-adv-x="650" />
<glyph horiz-adv-x="433" />
<glyph unicode=" "  horiz-adv-x="568" />
<glyph unicode="&#x09;" horiz-adv-x="568" />
<glyph unicode="&#xa0;" horiz-adv-x="568" />
<glyph unicode="!" horiz-adv-x="568" d="M254 0v213h172v-213h-172zM257 800v694h169v-694l-45 -456h-81z" />
<glyph unicode="&#x22;" horiz-adv-x="725" d="M107 1224v229h191v-229l-57 -274h-79zM435 1224v229h191v-229l-57 -274h-80z" />
<glyph unicode="#" d="M28 390v140h234l63 357h-221v139h249l73 402h155l-74 -402h258l70 402h159l-74 -402h190v-139h-217l-62 -357h213v-140h-238l-81 -431h-156l78 431h-253l-80 -431h-156l76 431h-206zM418 530h257l62 357h-253z" />
<glyph unicode="$" d="M68 390v36h162q2 -34 4 -47.5t6.5 -46.5t9.5 -47.5t15 -42.5t22.5 -42.5t32.5 -35t45 -31.5t58.5 -22t73.5 -17v557q-115 35 -166.5 56t-90.5 51q-146 105 -146 299q0 175 103 280t300 130v110h122v-110q185 -15 291 -122t106 -282h-162q-1 113 -66.5 184t-168.5 76v-509 q13 -3 53.5 -15t68 -20t71.5 -25.5t74.5 -37t66 -50.5t57 -67.5t36 -88.5t14.5 -112q0 -197 -113.5 -313.5t-327.5 -131.5v-211h-122v211q-207 14 -318 127t-111 310zM259 1077q0 -185 238 -246v491q-114 -17 -176 -80t-62 -165zM619 94q137 16 205.5 92.5t68.5 187.5 q0 102 -58.5 157.5t-215.5 102.5v-540z" />
<glyph unicode="%" horiz-adv-x="1819" d="M60 1052.5q0 144.5 102.5 248t244.5 103.5q147 0 249 -103t102 -252q0 -142 -102.5 -244.5t-245.5 -102.5q-144 0 -247 103t-103 247.5zM200 1052q0 -84 61.5 -144.5t148.5 -60.5q84 0 145.5 60t61.5 144q0 86 -61 146.5t-149 60.5q-85 0 -146 -60t-61 -146zM438 -41 l810 1494h133l-808 -1494h-135zM1060 312q0 143 103 245.5t246 102.5q148 0 249 -102.5t101 -250.5q0 -141 -103 -243.5t-244 -102.5q-146 0 -249 102.5t-103 248.5zM1201 312q0 -86 62.5 -147t148.5 -61q84 0 145 60t61 143q0 88 -60 149t-149 61q-84 0 -146 -61t-62 -144z " />
<glyph unicode="&#x26;" horiz-adv-x="1365" d="M107 361q0 140 70.5 233t260.5 204q-94 118 -129.5 189.5t-35.5 143.5q0 134 102 228t247.5 94t239.5 -90.5t94 -231.5q0 -112 -61 -189t-220 -168l272 -335q64 118 63 237v8h164q0 -192 -120 -376l251 -308h-224l-126 159q-14 -16 -38.5 -37.5t-50 -44t-63 -45t-77 -40 t-91.5 -28.5t-108 -11q-190 0 -305 111.5t-115 296.5zM279 374q0 -107 78.5 -184.5t188.5 -77.5q81 0 153 39t157 130l-328 410q-139 -89 -194 -159.5t-55 -157.5zM439 1133q0 -55 26 -99t120 -152q119 76 164 130t45 122q0 75 -50.5 124.5t-126.5 49.5q-80 0 -129 -47.5 t-49 -127.5z" />
<glyph unicode="'" horiz-adv-x="390" d="M98 1224v229h193v-229l-57 -274h-82z" />
<glyph unicode="(" horiz-adv-x="680" d="M150 530q0 241 90 501t244 463h111q-134 -220 -207 -469.5t-73 -494.5q0 -246 72.5 -495.5t207.5 -469.5h-111q-154 201 -244 462t-90 503z" />
<glyph unicode=")" horiz-adv-x="680" d="M77 -435q135 217 207.5 467.5t72.5 495.5q0 247 -72 496.5t-208 469.5h114q154 -203 244 -463t90 -503q0 -241 -90 -501.5t-244 -461.5h-114z" />
<glyph unicode="*" horiz-adv-x="795" d="M82 1221l39 119l218 -76l-11 230h128l-10 -230l217 76l39 -119l-222 -62l146 -182l-106 -74l-126 190l-129 -190l-103 74l141 182z" />
<glyph unicode="+" horiz-adv-x="1195" d="M102 404v142h425v425h142v-425h424v-142h-424v-424h-142v424h-425z" />
<glyph unicode="," horiz-adv-x="568" d="M177 0v213h217v-246q0 -267 -217 -267v76q73 5 98 43.5t25 144.5v36h-123z" />
<glyph unicode="-" horiz-adv-x="680" d="M94 492v147h487v-147h-487z" />
<glyph unicode="." horiz-adv-x="568" d="M177 0v213h213v-213h-213z" />
<glyph unicode="/" horiz-adv-x="568" d="M-16 -41l486 1535h111l-485 -1535h-112z" />
<glyph unicode="0" d="M88 702q0 183 30.5 322t77 218.5t112.5 129t126.5 65.5t127.5 16q106 0 188 -39.5t135.5 -107.5t88 -166t49.5 -208.5t15 -240.5q0 -358 -122 -548t-354 -190q-233 0 -353.5 190.5t-120.5 558.5zM273 701q0 -598 287 -599q150 0 222 148t72 458q0 583 -292 583 q-289 0 -289 -590z" />
<glyph unicode="1" d="M209 1035v128q75 10 120.5 18t87.5 23.5t64.5 32.5t44 49.5t36 69.5t31.5 97h117v-1453h-180v1035h-321z" />
<glyph unicode="2" d="M69 0q13 240 97.5 369.5t311.5 258.5l189 107q196 112 195 287q0 116 -81.5 194.5t-204.5 78.5q-72 0 -126 -24t-83.5 -58t-49 -85.5t-25.5 -90.5t-10 -89h-180q15 505 479 505q206 0 335.5 -119t129.5 -308q0 -271 -306 -439l-205 -109q-133 -72 -190.5 -139.5 t-71.5 -161.5h764v-177h-968z" />
<glyph unicode="3" d="M66 422h180q9 -159 83.5 -234.5t222.5 -75.5q141 0 220.5 77t79.5 215q0 131 -75.5 197.5t-224.5 66.5l-76 -1h-23v152q193 3 274 48t81 179q0 116 -68 182.5t-187 66.5q-67 0 -116.5 -17.5t-79 -46t-48 -71t-25 -84t-9.5 -93.5h-179q6 231 121 350.5t335 119.5 q207 0 324.5 -106.5t117.5 -294.5q0 -220 -203 -301q130 -44 188 -126t58 -220q0 -206 -134 -329t-358 -123q-228 0 -345.5 116t-133.5 353z" />
<glyph unicode="4" d="M57 348v190l660 915h132v-942h216v-163h-216v-348h-180v348h-612zM216 511h453v634z" />
<glyph unicode="5" d="M71 356h180q65 -245 297 -244q148 0 233 90t85 246q0 162 -86 256t-232 94q-84 0 -143.5 -31t-122.5 -106h-165l108 792h750v-179h-604l-57 -406q118 88 267 88q209 0 339.5 -134.5t130.5 -349.5q0 -230 -138.5 -374.5t-359.5 -144.5q-66 0 -124 11.5t-100 28t-79 45 t-60.5 52t-44.5 61t-32 58.5t-21.5 59t-13 49t-7.5 39z" />
<glyph unicode="6" d="M88 661q0 139 18 255t47.5 196t72.5 142t88.5 99t98.5 60t99.5 31.5t96.5 8.5q166 0 275.5 -100.5t134.5 -279.5h-179q-22 105 -85 161.5t-160 56.5q-155 0 -238 -142t-84 -407q116 162 333 161q195 0 320 -129t125 -331q0 -213 -134 -351.5t-341 -138.5q-488 0 -488 708 zM282 438q0 -140 85 -233t211 -93q124 0 206 89.5t82 227.5q0 144 -75.5 229t-205.5 85q-134 0 -218.5 -85t-84.5 -220z" />
<glyph unicode="7" d="M94 1274v179h971v-154q-247 -327 -388.5 -639.5t-200.5 -659.5h-194q81 358 209 630.5t389 643.5h-786z" />
<glyph unicode="8" d="M76 404q0 240 247 361q-110 68 -153 133.5t-43 166.5q0 170 122 279t313 109q193 0 315 -108.5t122 -279.5q0 -102 -43 -167.5t-156 -132.5q251 -119 251 -363q0 -198 -137 -323.5t-352 -125.5t-350.5 125.5t-135.5 325.5zM259 398q0 -126 84 -206t217 -80q138 0 222 79 t84 207q0 127 -84.5 206.5t-219.5 79.5t-219 -79t-84 -207zM312 1063q0 -102 68.5 -165t181.5 -63q115 0 184 62t69 163q0 106 -68.5 168.5t-184.5 62.5q-113 0 -181.5 -62.5t-68.5 -165.5z" />
<glyph unicode="9" d="M77 963q0 214 134 352t342 138q132 0 228 -52t153 -148.5t83 -223t26 -286.5q0 -193 -34.5 -339.5t-87.5 -230t-126 -135.5t-138 -68.5t-137 -16.5q-166 0 -276 101t-135 278h180q20 -105 84 -162.5t159 -57.5q155 0 238.5 142.5t85.5 408.5q-69 -83 -149 -121.5 t-182 -38.5q-197 0 -322.5 128.5t-125.5 331.5zM262 977q0 -146 76 -231t207 -85q132 0 217 86.5t85 219.5q0 140 -85 234t-210 94t-207.5 -90t-82.5 -228z" />
<glyph unicode=":" horiz-adv-x="568" d="M225 0v213h213v-213h-213zM225 860v213h213v-213h-213z" />
<glyph unicode=";" horiz-adv-x="568" d="M225 0v213h214v-246q0 -267 -214 -267v76q73 5 98 43.5t25 144.5v36h-123zM226 860v213h213v-213h-213z" />
<glyph unicode="&#x3c;" horiz-adv-x="1195" d="M93 405v141l1000 425v-163l-806 -329l806 -336v-162z" />
<glyph unicode="=" horiz-adv-x="1195" d="M102 226v145h991v-145h-991zM102 579v145h991v-145h-991z" />
<glyph unicode="&#x3e;" horiz-adv-x="1195" d="M102 -19v162l807 329l-807 336v163l1002 -425v-141z" />
<glyph unicode="?" d="M158 1038q0 237 114 358.5t334 121.5q199 0 318 -106.5t119 -286.5q0 -68 -20.5 -127t-52.5 -102t-71 -80.5t-78 -71.5t-71.5 -68.5t-53 -78.5t-20.5 -93v-97h-184v113q0 57 20 107.5t52 89t71.5 76.5t78.5 73.5t71 73t52.5 85.5t20.5 100q0 105 -72.5 168.5t-190.5 63.5 q-77 0 -130 -23t-81.5 -68.5t-40 -99.5t-11.5 -128h-174zM492 0v213h184v-213h-184z" />
<glyph unicode="@" horiz-adv-x="2077" d="M69 528q0 201 86.5 394.5t238.5 331.5q135 123 317 193.5t365 70.5q233 0 434 -103t319 -279t118 -379q0 -122 -45.5 -241t-128.5 -217q-157 -182 -383 -182q-198 0 -224 157q-72 -77 -141 -112t-151 -35q-142 0 -238 107.5t-96 268.5q0 108 44 212.5t116.5 182t169 125 t197.5 47.5q172 0 249 -180l47 136h168l-184 -573q-24 -72 -24 -104q0 -36 31 -63t72 -27q85 0 165 67.5t129 177.5t49 228q0 167 -97.5 312t-264 230.5t-358.5 85.5q-159 0 -307.5 -65.5t-258 -173.5t-175 -255.5t-65.5 -305.5q0 -144 60 -273t162 -221t244 -146t302 -54 q159 0 395 66l57 -137q-232 -86 -461 -86q-191 0 -364 64.5t-297.5 174t-198 261.5t-73.5 319zM725 499q0 -101 59 -171t144 -70q68 0 131 52.5t102.5 129.5t63 161t23.5 152q0 79 -55 132t-139 53q-129 0 -229 -133.5t-100 -305.5z" />
<glyph unicode="A" horiz-adv-x="1365" d="M35 0l533 1494h246l524 -1494h-213l-154 448h-575l-158 -448h-203zM443 609h474l-229 680z" />
<glyph unicode="B" horiz-adv-x="1365" d="M162 0v1494h605q102 0 182 -25.5t127.5 -64.5t79 -91t42.5 -100.5t11 -98.5q0 -229 -205 -324q142 -56 206.5 -142.5t64.5 -221.5q0 -192 -120.5 -309t-319.5 -117h-673zM353 168h464q76 0 132 24.5t83.5 65t40 81.5t12.5 84q0 118 -69 189t-199 71h-464v-515zM353 849 h368q143 0 220.5 55.5t77.5 182.5q0 71 -23 119t-67 73t-93.5 35t-114.5 10h-368v-475z" />
<glyph unicode="C" horiz-adv-x="1477" d="M98 729q0 71 9 142t31 150t56.5 149t88.5 135t122.5 111t165 74t210.5 28q488 0 575 -488h-195q-32 162 -129 240.5t-274 78.5q-216 0 -342.5 -165.5t-126.5 -451.5q0 -281 131.5 -446t353.5 -165q184 0 282.5 104t133.5 320h197q-69 -592 -614 -592q-130 0 -237 36 t-178.5 98t-124 139t-81 166.5t-41.5 172t-13 164.5z" />
<glyph unicode="D" horiz-adv-x="1477" d="M183 0v1494h575q283 0 445 -199.5t162 -545.5q0 -349 -162 -549t-445 -200h-575zM373 168h352q221 0 335.5 147.5t114.5 429.5q0 286 -114 432.5t-336 146.5h-352v-1156z" />
<glyph unicode="E" horiz-adv-x="1365" d="M184 0v1494h1033v-170h-843v-476h814v-168h-814v-512h882v-168h-1072z" />
<glyph unicode="F" horiz-adv-x="1250" d="M184 0v1494h1002v-170h-812v-476h713v-168h-713v-680h-190z" />
<glyph unicode="G" horiz-adv-x="1592" d="M90 732q0 98 18.5 196.5t69.5 207.5t128 191.5t207 136.5t294 54q257 0 421.5 -125.5t202.5 -352.5h-194q-31 144 -146 226.5t-285 82.5q-237 0 -381 -166t-144 -441q0 -79 13.5 -157.5t52 -164t95.5 -150.5t154 -107t219 -42q204 0 336 129.5t132 328.5v41h-452v170h622 v-798h-122l-48 199q-108 -122 -232.5 -180t-276.5 -58q-199 0 -355 98.5t-242.5 276t-86.5 404.5z" />
<glyph unicode="H" horiz-adv-x="1477" d="M170 0v1494h191v-646h767v646h191v-1494h-191v680h-767v-680h-191z" />
<glyph unicode="I" horiz-adv-x="568" d="M205 0v1494h192v-1494h-192z" />
<glyph unicode="J" horiz-adv-x="1024" d="M35 348v131h195v-97q0 -130 57.5 -200t165.5 -70q130 0 180 86t50 245v1051h190v-1121q0 -193 -114 -306.5t-308 -113.5q-192 0 -304 106.5t-112 288.5z" />
<glyph unicode="K" horiz-adv-x="1365" d="M162 0v1494h191v-757l742 757h245l-607 -609l614 -885h-225l-527 766l-242 -245v-521h-191z" />
<glyph unicode="L" d="M164 0v1494h191v-1326h737v-168h-928z" />
<glyph unicode="M" horiz-adv-x="1704" d="M152 0v1494h266l442 -1302l435 1302h264v-1494h-180v1250l-421 -1250h-200l-425 1250v-1250h-181z" />
<glyph unicode="N" horiz-adv-x="1477" d="M156 0v1494h207l779 -1221v1221h181v-1494h-215l-772 1209v-1209h-180z" />
<glyph unicode="O" horiz-adv-x="1592" d="M77 735q0 349 199.5 566t521.5 217q328 0 525 -216.5t197 -577.5q0 -162 -50.5 -302.5t-142 -244.5t-228 -164t-300.5 -60q-323 0 -522.5 216t-199.5 566zM267 735q0 -276 146.5 -445t385.5 -169q237 0 384 167.5t147 437.5q0 283 -145.5 453t-386.5 170 q-238 0 -384.5 -169t-146.5 -445z" />
<glyph unicode="P" horiz-adv-x="1365" d="M185 0v1494h618q221 0 341 -114t120 -326q0 -190 -116 -305t-301 -115h-470v-634h-192zM377 800h397q137 0 214 70t77 193t-77.5 192t-213.5 69h-397v-524z" />
<glyph unicode="Q" horiz-adv-x="1592" d="M77 735q0 350 200 566.5t522 216.5t521.5 -215.5t199.5 -562.5q0 -350 -212 -584l194 -158l-97 -119l-215 178q-177 -104 -391 -104q-323 0 -522.5 216t-199.5 566zM267 735q0 -276 146 -445t385 -169q123 0 245 56l-153 129l95 115l182 -150q163 184 163 466 q0 275 -146 443.5t-385 168.5t-385.5 -169t-146.5 -445z" />
<glyph unicode="R" horiz-adv-x="1477" d="M191 0v1494h689q220 0 336 -103.5t116 -297.5q0 -129 -54.5 -212t-179.5 -144q75 -32 121 -80t62 -101q15 -53 19 -111q2 -37 3 -74q0 -21 -1 -41q-1 -26 -1 -51q-1 -31 1 -59q2 -52 23.5 -98t64.5 -75v-47h-231q-41 97 -41 243v134q0 139 -59 202.5t-186 63.5h-492v-643 h-190zM381 811h460q152 0 222.5 61.5t70.5 194.5q0 77 -22 129.5t-64.5 79.5t-91.5 37.5t-115 10.5h-460v-513z" />
<glyph unicode="S" horiz-adv-x="1365" d="M98 476h181v-12q0 -63 19 -118.5t63.5 -108.5t131.5 -84.5t208 -31.5q92 0 162.5 18t111 45.5t65.5 65.5t33 71t8 69q0 89 -66.5 148t-207.5 96l-370 98q-294 76 -294 347q0 204 143 321.5t389 117.5q257 0 400.5 -122t145.5 -342h-181q-2 147 -97.5 225t-274.5 78 q-151 0 -243 -68.5t-92 -182.5q0 -86 55 -135t191 -86l376 -101q152 -41 234.5 -138.5t82.5 -235.5q0 -60 -15.5 -118.5t-56.5 -121t-104 -109.5t-168 -77.5t-240 -30.5q-84 0 -160.5 13.5t-156.5 49.5t-138 92.5t-96 151t-39 216.5z" />
<glyph unicode="T" horiz-adv-x="1250" d="M43 1324v170h1172v-170h-490v-1324h-190v1324h-492z" />
<glyph unicode="U" horiz-adv-x="1477" d="M175 445v1049h189v-1049q0 -163 104 -243.5t277 -80.5q180 0 283 86.5t103 237.5v1049h191v-1049q0 -225 -157 -358.5t-420 -133.5q-265 0 -417.5 132t-152.5 360z" />
<glyph unicode="V" horiz-adv-x="1365" d="M61 1494h205l438 -1264l414 1264h204l-519 -1494h-205z" />
<glyph unicode="W" horiz-adv-x="1933" d="M46 1494h212l280 -1213l334 1213h204l338 -1213l277 1213h213l-381 -1494h-208l-344 1227l-335 -1227h-207z" />
<glyph unicode="X" horiz-adv-x="1365" d="M46 0l527 766l-496 728h231l384 -587l385 587h228l-505 -728l530 -766h-237l-408 622l-410 -622h-229z" />
<glyph unicode="Y" horiz-adv-x="1365" d="M27 1494h235l439 -728l425 728h228l-562 -908v-586h-190v586z" />
<glyph unicode="Z" horiz-adv-x="1250" d="M57 0v168l898 1156h-840v170h1075v-172l-892 -1154h896v-168h-1137z" />
<glyph unicode="[" horiz-adv-x="568" d="M131 -435v1929h381v-148h-212v-1633h212v-148h-381z" />
<glyph unicode="\" horiz-adv-x="568" d="M-16 1494h112l485 -1535h-111z" />
<glyph unicode="]" horiz-adv-x="568" d="M47 -287h211v1633h-211v148h382v-1929h-382v148z" />
<glyph unicode="^" horiz-adv-x="959" d="M90 675l314 778h149l319 -778h-143l-250 614l-247 -614h-142z" />
<glyph unicode="_" d="M-46 -258h1229v-103h-1229v103z" />
<glyph unicode="`" horiz-adv-x="680" d="M46 1516h229l197 -303h-123z" />
<glyph unicode="a" d="M86 271q0 180 126 255q86 52 294 82q30 3 113 14q101 13 140 39t39 81v44q0 76 -63 118.5t-177 42.5q-121 0 -181.5 -46.5t-70.5 -143.5h-172q2 83 30 146.5t69 100.5t99 60.5t112.5 31.5t117.5 8q199 0 302 -74.5t103 -218.5v-631q0 -40 24 -62t68 -22q18 0 36 5v-129 q-67 -18 -117 -19q-83 0 -124.5 38.5t-50.5 118.5q-90 -83 -177 -120t-188 -37q-163 0 -257.5 85.5t-94.5 232.5zM265 274q0 -81 55.5 -126.5t155.5 -45.5q141 0 231.5 75.5t90.5 161.5v191q-44 -20 -121 -33t-144 -23.5t-130 -29t-100.5 -61t-37.5 -109.5z" />
<glyph unicode="b" d="M110 0v1494h171v-566q59 90 139.5 133t191.5 43q213 0 336 -151.5t123 -412.5q0 -267 -127.5 -427t-340.5 -160q-217 0 -338 184v-137h-155zM281 528q0 -190 81.5 -303t216.5 -113q140 0 227 113.5t87 295.5q0 193 -85.5 308t-228.5 115q-135 0 -216.5 -113t-81.5 -303z " />
<glyph unicode="c" horiz-adv-x="1024" d="M63 519q0 266 130 425.5t347 159.5q187 0 298 -101t126 -291h-172q-15 113 -80.5 174t-173.5 61q-139 0 -218 -114t-79 -314q0 -190 81 -299.5t222 -109.5q217 0 262 259h171q-16 -197 -131.5 -306.5t-307.5 -109.5q-218 0 -346.5 153t-128.5 413z" />
<glyph unicode="d" d="M53 538q0 257 125.5 411.5t334.5 154.5q221 0 331 -166v556h169v-1494h-151v142q-68 -100 -149.5 -144.5t-192.5 -44.5q-216 0 -341.5 157t-125.5 428zM232 528q0 -188 86 -302t227 -114q135 0 217 113t82 300q0 192 -81.5 305.5t-218.5 113.5q-141 0 -226.5 -114 t-85.5 -302z" />
<glyph unicode="e" d="M82 521q0 265 133.5 424t357.5 159q150 0 266 -75.5t169 -207.5q43 -116 43 -342h-792q2 -81 14.5 -132t42.5 -97q89 -140 260 -140q207 0 280 215h173q-33 -174 -154.5 -273t-305.5 -99q-226 0 -356.5 152t-130.5 416zM265 619h601q2 3 2 11q0 133 -85.5 225t-211.5 92 q-130 0 -213 -89.5t-93 -238.5z" />
<glyph unicode="f" horiz-adv-x="568" d="M36 934v139h144v183q0 114 66.5 179t184.5 65q41 0 97 -12v-141q-39 2 -58 2q-121 0 -121 -108v-168h179v-139h-179v-934h-169v934h-144z" />
<glyph unicode="g" d="M60 519q0 261 126 423t331 162q201 0 327 -187v156h158v-897q0 -121 -10.5 -209t-41.5 -169.5t-83 -132.5t-139 -81t-207 -30q-188 0 -301 86t-126 237h173q9 -50 35 -86t54.5 -53.5t67 -27t59.5 -11.5t45 -2q89 0 148.5 26t92 79.5t45.5 121.5t13 166v54 q-72 -100 -148.5 -145.5t-175.5 -45.5q-189 0 -316 155t-127 411zM238 528q0 -196 79 -307t220 -111q135 0 212.5 110t77.5 301q0 201 -77 313.5t-215 112.5q-137 0 -217 -113t-80 -306z" />
<glyph unicode="h" d="M143 0v1494h171v-568q75 98 152 138t192 40q156 0 247 -78.5t91 -214.5v-811h-171v743q0 60 -21.5 104t-57 66t-70.5 32t-73 10q-131 0 -210 -99t-79 -263v-593h-171z" />
<glyph unicode="i" horiz-adv-x="453" d="M135 1278v216h172v-216h-172zM138 0v1073h170v-1073h-170z" />
<glyph unicode="j" horiz-adv-x="453" d="M-36 -295q34 -3 41 -3q79 0 108.5 31t29.5 111v1229h171v-1297q0 -108 -74.5 -165t-219.5 -57q-32 0 -56 7v144zM143 1278v216h171v-216h-171z" />
<glyph unicode="k" horiz-adv-x="1024" d="M118 0v1494h171v-875l454 454h220l-374 -371l440 -702h-212l-362 581l-166 -163v-418h-171z" />
<glyph unicode="l" horiz-adv-x="453" d="M139 0v1494h173v-1494h-173z" />
<glyph unicode="m" horiz-adv-x="1704" d="M143 0v1073h157v-151q71 98 147 140t183 42q105 0 173.5 -39.5t116.5 -124.5q74 91 148 127.5t181 36.5q150 0 231 -77.5t81 -220.5v-806h-173v740q0 101 -52.5 158t-145.5 57q-105 0 -178.5 -82t-73.5 -198v-675h-172v740q0 102 -52 158.5t-146 56.5q-105 0 -179 -82 t-74 -198v-675h-172z" />
<glyph unicode="n" d="M143 0v1073h157v-180q72 113 154.5 162t203.5 49q155 0 247 -80t92 -213v-811h-170v743q0 98 -59.5 155t-161.5 57q-132 0 -211.5 -99t-79.5 -263v-593h-172z" />
<glyph unicode="o" d="M74 528q0 270 129.5 423t354.5 153q231 0 358.5 -153t127.5 -431q0 -264 -129.5 -415.5t-354.5 -151.5q-229 0 -357.5 152.5t-128.5 422.5zM251 528q0 -195 82.5 -306.5t226.5 -111.5q141 0 223.5 111t82.5 300q0 201 -81.5 313.5t-225 112.5t-226 -113t-82.5 -306z" />
<glyph unicode="p" d="M110 -446v1519h157v-161q123 191 343 192q214 0 337.5 -157t123.5 -428q0 -257 -126 -411.5t-333 -154.5q-105 0 -183.5 38.5t-146.5 120.5v-558h-172zM282 528q0 -189 82 -302.5t217 -113.5q139 0 225.5 113.5t86.5 295.5q0 192 -85 307.5t-227 115.5 q-135 0 -217 -113.5t-82 -302.5z" />
<glyph unicode="q" d="M53 517q0 267 127.5 427t339.5 160q107 0 195 -44.5t147 -129.5v143h151v-1519h-169v569q-59 -88 -139.5 -129t-192.5 -41q-212 0 -335.5 151.5t-123.5 412.5zM232 528q0 -188 86 -302t227 -114q134 0 216.5 112.5t82.5 296.5q0 193 -81 308t-218 115q-141 0 -227 -114.5 t-86 -301.5z" />
<glyph unicode="r" horiz-adv-x="680" d="M142 0v1073h157v-193q74 119 142 171.5t152 52.5q16 0 65 -6v-175q-84 -1 -142.5 -16.5t-106.5 -54t-71.5 -112t-23.5 -182.5v-558h-172z" />
<glyph unicode="s" horiz-adv-x="1024" d="M69 320h181q5 -35 13 -62t26 -56.5t45 -48t72.5 -31t105.5 -12.5q112 0 181 46.5t69 122.5q0 58 -38.5 92.5t-128.5 57.5l-158 37q-190 46 -265.5 115.5t-75.5 194.5q0 149 112.5 238.5t299 89.5t287 -85.5t102.5 -244.5h-180q-7 173 -214 173q-105 0 -167 -44.5 t-62 -118.5q0 -56 47 -92.5t151 -61.5l164 -37q160 -40 232 -110.5t72 -190.5q0 -155 -120 -247t-323 -92q-210 0 -316 90t-112 277z" />
<glyph unicode="t" horiz-adv-x="568" d="M28 934v139h147v295h169v-295h176v-139h-176v-735q0 -57 19 -77t75 -20t82 8v-143q-76 -14 -139 -14q-100 0 -153 44t-53 126v811h-147z" />
<glyph unicode="u" d="M134 246v827h169v-759q0 -97 60 -154.5t162 -57.5q133 0 212.5 99t79.5 263v609h171v-1073h-155v150q-75 -107 -157 -152t-200 -45q-157 0 -249.5 80t-92.5 213z" />
<glyph unicode="v" horiz-adv-x="1024" d="M20 1073h193l286 -870l304 870h193l-411 -1073h-188z" />
<glyph unicode="w" horiz-adv-x="1477" d="M13 1073h187l221 -835l205 835h207l211 -835l213 835h193l-316 -1073h-194l-216 841l-207 -841h-194z" />
<glyph unicode="x" horiz-adv-x="1024" d="M35 0l379 546l-359 527h195l257 -389l259 389h192l-360 -519l371 -554h-199l-267 412l-273 -412h-195z" />
<glyph unicode="y" horiz-adv-x="1024" d="M41 1073h183l273 -835l297 835h184l-475 -1298q-85 -221 -278 -221q-65 0 -115 25v155q59 -13 90 -13q55 0 85.5 23.5t53.5 80.5l65 170z" />
<glyph unicode="z" horiz-adv-x="1024" d="M63 0v152l641 771h-597v150h800v-151l-636 -772h665v-150h-873z" />
<glyph unicode="{" horiz-adv-x="683" d="M88 459v142q91 19 125.5 79t34.5 202v342q0 127 58.5 198.5t164.5 71.5h94v-134h-30q-75 0 -102.5 -28.5t-27.5 -108.5v-371q0 -142 -37 -213.5t-130 -108.5q86 -39 126.5 -117t40.5 -206v-371q0 -80 27.5 -108t102.5 -28h30v-135h-94q-106 0 -164.5 70.5t-58.5 198.5 v342q0 141 -34.5 202.5t-125.5 80.5z" />
<glyph unicode="|" horiz-adv-x="532" d="M205 -435v1929h123v-1929h-123z" />
<glyph unicode="}" horiz-adv-x="683" d="M60 -300h33q75 0 103 28.5t28 107.5v371q0 127 40.5 205t125.5 116q-85 40 -125.5 119t-40.5 205v371q0 80 -28 108.5t-103 28.5h-33v134h96q107 0 166 -70.5t59 -199.5v-342q0 -140 34 -201t122 -80v-142q-88 -18 -122 -80.5t-34 -202.5v-342q0 -127 -59 -198t-166 -71 h-96v135z" />
<glyph unicode="~" horiz-adv-x="1195" d="M152 601q9 143 65.5 219.5t156.5 76.5q57 0 112 -32l239 -141q58 -35 102 -36q55 0 79.5 34.5t24.5 109.5v9h109v-33q0 -118 -58.5 -189t-156.5 -71q-80 0 -165 54l-201 130q-16 9 -45 18t-43 9q-96 0 -109 -158h-110z" />
<glyph unicode="&#xa1;" horiz-adv-x="568" d="M250 273l45 456h81l43 -456v-694h-169v694zM250 860v213h172v-213h-172z" />
<glyph unicode="&#xa2;" d="M107 519q0 250 119 405.5t327 176.5v185h86v-182q180 -13 282 -114t111 -278h-172q-10 102 -69 164.5t-152 70.5v-838q196 20 234 260h171q-11 -184 -119 -296t-286 -120v-199h-86v200q-208 19 -327 169.5t-119 395.5zM284 519q0 -174 70 -280.5t199 -126.5v832 q-132 -24 -200.5 -132t-68.5 -293z" />
<glyph unicode="&#xa3;" d="M53 658v112h165q-71 117 -89.5 166.5t-18.5 117.5q0 187 140.5 313.5t347.5 126.5q59 0 114 -9.5t118 -40.5t108.5 -81t77.5 -138.5t33 -206.5h-181q-8 314 -279 314q-131 0 -210 -71.5t-79 -189.5q0 -57 16 -102t54 -107.5t52 -91.5h328v-112h-279q32 -92 32 -146 q0 -81 -52.5 -164t-191.5 -223q123 80 252 80q68 0 173.5 -31.5t155.5 -31.5q82 0 170 61l85 -135q-61 -60 -124.5 -87.5t-143.5 -27.5q-89 0 -225 47t-208 47q-107 0 -224 -75l-99 135q141 119 199 208t58 182q0 76 -49 161h-226z" />
<glyph unicode="&#xa4;" d="M137 1019l114 109l113 -112q90 53 198 54q118 0 203 -59l120 109l117 -118l-113 -113q53 -81 53 -190q0 -105 -60 -200l112 -110l-120 -110l-108 109q-85 -63 -205 -63q-109 0 -192 52l-104 -104l-115 116l98 100q-65 89 -65 210q0 116 65 208zM344 696q0 -88 64 -150 t154 -62q89 0 154 62t65 148q0 91 -64 154.5t-156 63.5q-89 0 -153 -63.5t-64 -152.5z" />
<glyph unicode="&#xa5;" d="M22 1453h175l379 -661l366 661h175l-413 -728h309v-105h-346v-157h346v-106h-346v-357h-181v357h-352v106h352v157h-352v105h309z" />
<glyph unicode="&#xa6;" horiz-adv-x="532" d="M205 388h123v-823h-123v823zM205 671v823h123v-823h-123z" />
<glyph unicode="&#xa7;" d="M88 639q0 101 50.5 174t164.5 134q-48 56 -69 103.5t-21 104.5q0 142 110 240.5t269.5 98.5t258.5 -100.5t99 -262.5v-58h-172v53q0 96 -54 153t-145 57q-79 0 -130.5 -49.5t-51.5 -125.5q0 -44 26 -79t90 -78l301 -193q124 -81 173.5 -156t49.5 -185q0 -238 -223 -320 q61 -69 84.5 -122.5t23.5 -120.5q0 -147 -109.5 -245.5t-274.5 -98.5q-50 0 -96.5 8.5t-100 36t-93 70.5t-65 119t-25.5 175h174q0 -75 20 -128t53.5 -78t66 -35t68.5 -10q88 0 142.5 49t54.5 128q0 55 -26 96t-85 83l-351 239q-99 71 -143 147t-44 176zM250 671 q0 -63 27 -103t108 -98l340 -253q72 38 110.5 92t38.5 117q0 126 -149 229l-329 225q-81 -53 -113.5 -100t-32.5 -109z" />
<glyph unicode="&#xa8;" horiz-adv-x="680" d="M61 1254v209h213v-209h-213zM394 1254v209h212v-209h-212z" />
<glyph unicode="&#xa9;" horiz-adv-x="1508" d="M-27 737q0 159 62 304t166.5 250t250 167t305 62t304 -62t248.5 -166.5t166 -249t62 -302.5q0 -162 -62 -307.5t-168 -250.5t-252.5 -166.5t-309.5 -61.5q-206 0 -384.5 106.5t-283 287t-104.5 389.5zM112 737q0 -175 86 -326.5t233 -240t318 -88.5q179 0 328.5 87.5 t235 238.5t85.5 332q0 132 -50.5 252.5t-137 208.5t-205 140t-248.5 52q-174 0 -323.5 -88.5t-235.5 -239t-86 -328.5zM371 732q0 215 111 348t292 133q137 0 220 -78t120 -240h-145q-26 101 -73 145.5t-129 44.5q-116 0 -185.5 -95.5t-69.5 -256.5q0 -147 70 -247.5 t185 -100.5q86 0 142 64.5t76 189.5h146q0 -2 -2 -8q-7 -35 -12 -57t-20 -66t-31 -73t-44.5 -65.5t-62.5 -58.5t-83.5 -37.5t-108.5 -15.5q-175 0 -285.5 132t-110.5 342z" />
<glyph unicode="&#xaa;" horiz-adv-x="757" d="M76 1013q0 101 69 151.5t252 64.5q58 5 79 19t21 49v26q0 43 -35 66.5t-101 23.5q-71 0 -100.5 -24.5t-39.5 -90.5h-120q1 109 69 165.5t194 56.5q250 0 250 -193v-366q0 -48 47 -47q13 -1 22 6v-89q-33 -14 -66 -14q-51 0 -77.5 20t-35.5 69q-101 -89 -215 -89 q-98 0 -155.5 53t-57.5 143zM88 620v105h567v-105h-567zM193 1019q0 -46 31.5 -71t87.5 -25q75 0 130 41t55 95v104q-30 -13 -75 -21t-82 -12.5t-72 -14.5t-55 -33.5t-20 -62.5z" />
<glyph unicode="&#xab;" d="M200 464v183l312 250v-171l-217 -168l217 -170v-171zM620 464v183l311 250v-171l-215 -168l215 -170v-171z" />
<glyph unicode="&#xac;" horiz-adv-x="1195" d="M82 626v141h1032v-591h-143v450h-889z" />
<glyph unicode="&#xad;" horiz-adv-x="680" d="M94 492v147h487v-147h-487z" />
<glyph unicode="&#xae;" horiz-adv-x="1508" d="M-27 737q0 159 62 304t166.5 250t250 167t305 62t304 -62t248.5 -166.5t166 -249t62 -302.5q0 -162 -62 -307.5t-168 -250.5t-252.5 -166.5t-309.5 -61.5q-206 0 -384.5 106.5t-283 287t-104.5 389.5zM112 737q0 -175 86 -326.5t233 -240t318 -88.5q179 0 328.5 87.5 t235 238.5t85.5 332q0 132 -50.5 252.5t-137 208.5t-205 140t-248.5 52q-174 0 -323.5 -88.5t-235.5 -239t-86 -328.5zM414 287v912h421q290 0 290 -259q0 -69 -24 -112.5t-88 -90.5q49 -32 71 -76.5t22.5 -89.5t-1.5 -88.5t7.5 -82t40.5 -61.5v-52h-162q-34 77 -30 158 l2 82q0 74 -31.5 107t-99.5 33h-274v-380h-144zM558 794h263q80 0 117 33.5t37 103.5q0 73 -36.5 106t-117.5 33h-263v-276z" />
<glyph unicode="&#xaf;" horiz-adv-x="680" d="M57 1291v145h562v-145h-562z" />
<glyph unicode="&#xb0;" horiz-adv-x="1240" d="M308 1095q0 129 91.5 219.5t220.5 90.5q127 0 218.5 -91t91.5 -219q0 -130 -91 -220.5t-222 -90.5q-126 0 -217.5 92t-91.5 219zM426 1094.5q0 -79.5 56.5 -136.5t134.5 -57q82 0 139.5 56.5t57.5 137.5q0 80 -57 137t-137 57t-137 -57.5t-57 -137z" />
<glyph unicode="&#xb1;" horiz-adv-x="1195" d="M102 -22v143h991v-143h-991zM102 709v143h425v423h142v-423h424v-143h-424v-425h-142v425h-425z" />
<glyph unicode="&#xb2;" horiz-adv-x="717" d="M39 581q8 149 60 227t200 156l119 65q121 64 120 161q0 66 -50 110t-124 44q-53 0 -89.5 -18.5t-54 -52t-24.5 -62.5t-11 -70h-125q5 158 81 235t228 77q132 0 215.5 -72.5t83.5 -186.5q0 -165 -197 -264l-130 -65q-66 -36 -98.5 -71t-50.5 -93h469v-120h-622z" />
<glyph unicode="&#xb3;" horiz-adv-x="717" d="M33 844h126q5 -96 50.5 -139.5t137.5 -43.5q86 0 134.5 44.5t48.5 121.5q0 56 -32.5 95t-85.5 49q-31 5 -137 4v104q132 0 180 26.5t48 98.5q0 65 -42 102.5t-114 37.5q-96 0 -131.5 -47t-35.5 -136h-128q1 144 76.5 218t218.5 74q131 0 207 -66.5t76 -179.5 q0 -121 -117 -175q147 -49 147 -205q0 -125 -87 -199.5t-232 -74.5q-147 0 -227.5 76t-80.5 215z" />
<glyph unicode="&#xb4;" horiz-adv-x="680" d="M189 1213l196 303h232l-305 -303h-123z" />
<glyph unicode="&#xb5;" horiz-adv-x="1175" d="M159 -410v1470h181v-446q0 -248 24 -316q23 -73 81 -116t141 -43q86 0 149 50t73 92q36 109 36 329v450h175v-1060h-163v127q-47 -76 -108.5 -114t-158.5 -38q-88 0 -143 31.5t-106 100.5v-517h-181z" />
<glyph unicode="&#xb6;" horiz-adv-x="1099" d="M98 1002q0 207 133 349.5t327 142.5h512v-131h-117v-1726h-132v1726h-168v-1726h-132v893q-133 7 -231 74t-145 170.5t-47 227.5z" />
<glyph unicode="&#xb7;" horiz-adv-x="568" d="M177 619v255h254v-255h-254z" />
<glyph unicode="&#xb8;" horiz-adv-x="680" d="M80 -369l43 82q51 -26 101.5 -47t98.5 -21q49 0 80.5 26.5t31.5 66.5q0 34 -26 55.5t-69 21.5q-27 0 -65 -18l-24 14l88 189h76l-46 -115q27 5 57 5q77 0 119 -36t42 -102q0 -88 -67.5 -139t-183.5 -51q-58 0 -109 13.5t-147 55.5z" />
<glyph unicode="&#xb9;" horiz-adv-x="717" d="M125 1188v94l31 1q110 11 147 41.5t63 128.5h89v-872h-127v607h-203z" />
<glyph unicode="&#xba;" horiz-adv-x="746" d="M82 1168.5q0 166.5 76.5 259t214.5 92.5q140 0 215 -92.5t75 -264.5q0 -162 -77 -254t-213 -92q-138 0 -214.5 92.5t-76.5 259zM104 620v105h539v-105h-539zM200 1168q0 -114 46 -179.5t127 -65.5q80 0 126 65.5t46 177.5q0 116 -45.5 181.5t-126.5 65.5t-127 -65 t-46 -180z" />
<glyph unicode="&#xbb;" d="M200 217v171l222 170l-222 168v171l317 -247v-184zM609 217v171l222 170l-222 168v171l314 -247v-184z" />
<glyph unicode="&#xbc;" horiz-adv-x="1778" d="M125 1188v94l31 1q110 11 147 41.5t63 128.5h89v-872h-127v607h-203zM390 -41l926 1494h120l-925 -1494h-121zM1090 205v120l418 547h94v-558h138v-109h-138v-205h-127v205h-385zM1209 314h266v347z" />
<glyph unicode="&#xbd;" horiz-adv-x="1778" d="M125 1188v94l31 1q110 11 147 41.5t63 128.5h89v-872h-127v607h-203zM341 -41l926 1494h120l-925 -1494h-121zM1100 0q8 150 60.5 227.5t199.5 154.5l119 64q121 66 121 163q0 66 -50 109.5t-124 43.5q-53 0 -90 -18t-54.5 -51.5t-24.5 -63t-9 -69.5h-128q6 158 82 235 t227 77q132 0 215.5 -72.5t83.5 -187.5q0 -166 -197 -264l-127 -66q-68 -36 -100.5 -71t-49.5 -93h469v-118h-623z" />
<glyph unicode="&#xbe;" horiz-adv-x="1778" d="M33 844h126q5 -96 50.5 -139.5t137.5 -43.5q86 0 134.5 44.5t48.5 121.5q0 56 -32.5 95t-85.5 49q-31 5 -137 4v104q132 0 180 26.5t48 98.5q0 65 -42 102.5t-114 37.5q-96 0 -131.5 -47t-35.5 -136h-128q1 144 76.5 218t218.5 74q131 0 207 -66.5t76 -179.5 q0 -121 -117 -175q147 -49 147 -205q0 -125 -87 -199.5t-232 -74.5q-147 0 -227.5 76t-80.5 215zM412 -41l926 1494h117l-925 -1494h-118zM1090 205v120l418 547h94v-558h138v-109h-138v-205h-127v205h-385zM1209 314h266v347z" />
<glyph unicode="&#xbf;" d="M197 -52q0 68 20.5 127t52.5 102t71 80.5t78 71.5t71.5 68.5t53 78.5t20.5 93v97h184v-113q0 -57 -20 -107.5t-52 -89t-71.5 -76.5t-78.5 -73.5t-71 -73t-52.5 -85.5t-20.5 -100q0 -105 72.5 -168.5t190.5 -63.5q77 0 130 23t81.5 68.5t40 99.5t11.5 128h174 q0 -237 -114 -358.5t-334 -121.5q-199 0 -318 106.5t-119 286.5zM564 860v213h184v-213h-184z" />
<glyph unicode="&#xc0;" horiz-adv-x="1365" d="M35 0l533 1494h246l524 -1494h-213l-154 448h-575l-158 -448h-203zM389 1923h230l197 -303h-123zM443 609h474l-229 680z" />
<glyph unicode="&#xc1;" horiz-adv-x="1365" d="M35 0l533 1494h246l524 -1494h-213l-154 448h-575l-158 -448h-203zM443 609h474l-229 680zM562 1620l196 303h232l-305 -303h-123z" />
<glyph unicode="&#xc2;" horiz-adv-x="1365" d="M35 0l533 1494h246l524 -1494h-213l-154 448h-575l-158 -448h-203zM394 1617l197 308h193l197 -308h-129l-166 197l-161 -197h-131zM443 609h474l-229 680z" />
<glyph unicode="&#xc3;" horiz-adv-x="1365" d="M35 0l533 1494h246l524 -1494h-213l-154 448h-575l-158 -448h-203zM369 1642q16 101 61.5 156t112.5 55q52 0 142.5 -38t130.5 -38q52 0 76 76h118q-28 -213 -182 -212q-40 0 -142.5 38t-131.5 38q-47 0 -68 -75h-117zM443 609h474l-229 680z" />
<glyph unicode="&#xc4;" horiz-adv-x="1365" d="M35 0l533 1494h246l524 -1494h-213l-154 448h-575l-158 -448h-203zM417 1642v209h213v-209h-213zM443 609h474l-229 680zM750 1642v209h212v-209h-212z" />
<glyph unicode="&#xc5;" horiz-adv-x="1365" d="M35 0l533 1494h246l524 -1494h-213l-154 448h-575l-158 -448h-203zM443 609h474l-229 680zM505 1772.5q0 72.5 53.5 125.5t126.5 53q75 0 127.5 -52t52.5 -127q0 -74 -53 -126.5t-127 -52.5q-73 0 -126.5 53.5t-53.5 126zM595 1772.5q0 -36.5 27 -63t63 -26.5t63 26 t27 63q0 38 -25.5 63.5t-64.5 25.5q-36 0 -63 -26t-27 -62.5z" />
<glyph unicode="&#xc6;" horiz-adv-x="2048" d="M22 0l613 1494h1274v-170h-760v-476h722v-168h-722v-512h797v-168h-988v438h-551l-174 -438h-211zM471 606h487v718h-205z" />
<glyph unicode="&#xc7;" horiz-adv-x="1477" d="M98 729q0 71 9 142t31 150t56.5 149t88.5 135t122.5 111t165 74t210.5 28q488 0 575 -488h-195q-32 159 -126.5 239t-275.5 80q-217 0 -343.5 -165.5t-126.5 -451.5q0 -281 131.5 -447.5t353.5 -166.5q184 0 282 103.5t134 323.5h197q-71 -592 -611 -592l-26 -68 q26 5 57 5q77 0 119.5 -36t42.5 -102q0 -88 -68 -139t-184 -51q-58 0 -110 14t-145 55l42 82q15 -7 46 -22t50 -23t48 -15.5t56 -7.5q47 0 79 26.5t32 66.5q0 34 -25 55.5t-69 21.5q-26 0 -63 -18l-23 14l64 142q-116 16 -178 38.5t-127 68.5q-140 99 -218 275t-78 394z" />
<glyph unicode="&#xc8;" horiz-adv-x="1365" d="M184 0v1494h1033v-170h-843v-476h814v-168h-814v-512h882v-168h-1072zM426 1923h229l197 -303h-123z" />
<glyph unicode="&#xc9;" horiz-adv-x="1365" d="M184 0v1494h1033v-170h-843v-476h814v-168h-814v-512h882v-168h-1072zM553 1620l196 303h232l-305 -303h-123z" />
<glyph unicode="&#xca;" horiz-adv-x="1365" d="M184 0v1494h1033v-170h-843v-476h814v-168h-814v-512h882v-168h-1072zM412 1615l197 308h193l197 -308h-129l-166 196l-161 -196h-131z" />
<glyph unicode="&#xcb;" horiz-adv-x="1365" d="M184 0v1494h1033v-170h-843v-476h814v-168h-814v-512h882v-168h-1072zM430 1642v209h213v-209h-213zM763 1642v209h212v-209h-212z" />
<glyph unicode="&#xcc;" horiz-adv-x="568" d="M0 1923h230l197 -303h-123zM205 0v1494h192v-1494h-192z" />
<glyph unicode="&#xcd;" horiz-adv-x="568" d="M146 1620l195 303h232l-304 -303h-123zM205 0v1494h192v-1494h-192z" />
<glyph unicode="&#xce;" horiz-adv-x="568" d="M-2 1617l197 308h193l197 -308h-129l-166 197l-161 -197h-131zM205 0v1494h192v-1494h-192z" />
<glyph unicode="&#xcf;" horiz-adv-x="568" d="M28 1642v209h213v-209h-213zM205 0v1494h192v-1494h-192zM361 1642v209h212v-209h-212z" />
<glyph unicode="&#xd0;" horiz-adv-x="1477" d="M41 694v138h142v662h576q282 0 444 -199.5t162 -545.5q0 -349 -162 -549t-444 -200h-576v694h-142zM373 168h353q221 0 335 147.5t114 433.5q0 283 -114 429t-335 146h-353v-492h351v-138h-351v-526z" />
<glyph unicode="&#xd1;" horiz-adv-x="1477" d="M156 0v1494h207l779 -1221v1221h181v-1494h-215l-772 1209v-1209h-180zM419 1642q16 101 61.5 156t112.5 55q52 0 142.5 -38t130.5 -38q52 0 76 76h118q-28 -213 -182 -212q-40 0 -142.5 38t-131.5 38q-47 0 -68 -75h-117z" />
<glyph unicode="&#xd2;" horiz-adv-x="1592" d="M77 735q0 349 199.5 566t521.5 217q328 0 525 -216.5t197 -577.5q0 -162 -50.5 -302.5t-142 -244.5t-228 -164t-300.5 -60q-323 0 -522.5 216t-199.5 566zM267 735q0 -276 146.5 -445t385.5 -169q237 0 384 167.5t147 437.5q0 283 -145.5 453t-386.5 170 q-238 0 -384.5 -169t-146.5 -445zM504 1923h230l197 -303h-123z" />
<glyph unicode="&#xd3;" horiz-adv-x="1592" d="M77 735q0 349 199.5 566t521.5 217q328 0 525 -216.5t197 -577.5q0 -162 -50.5 -302.5t-142 -244.5t-228 -164t-300.5 -60q-323 0 -522.5 216t-199.5 566zM267 735q0 -276 146.5 -445t385.5 -169q237 0 384 167.5t147 437.5q0 283 -145.5 453t-386.5 170 q-238 0 -384.5 -169t-146.5 -445zM659 1620l195 303h233l-305 -303h-123z" />
<glyph unicode="&#xd4;" horiz-adv-x="1592" d="M77 735q0 349 199.5 566t521.5 217q328 0 525 -216.5t197 -577.5q0 -162 -50.5 -302.5t-142 -244.5t-228 -164t-300.5 -60q-323 0 -522.5 216t-199.5 566zM267 735q0 -276 146.5 -445t385.5 -169q237 0 384 167.5t147 437.5q0 283 -145.5 453t-386.5 170 q-238 0 -384.5 -169t-146.5 -445zM505 1617l197 308h193l197 -308h-128l-166 197l-162 -197h-131z" />
<glyph unicode="&#xd5;" horiz-adv-x="1592" d="M77 735q0 349 199.5 566t521.5 217q328 0 525 -216.5t197 -577.5q0 -162 -50.5 -302.5t-142 -244.5t-228 -164t-300.5 -60q-323 0 -522.5 216t-199.5 566zM267 735q0 -276 146.5 -445t385.5 -169q237 0 384 167.5t147 437.5q0 283 -145.5 453t-386.5 170 q-238 0 -384.5 -169t-146.5 -445zM476 1642q16 101 61.5 156t112.5 55q52 0 142.5 -38t130.5 -38q52 0 76 76h118q-28 -213 -182 -212q-40 0 -143 38t-131 38q-47 0 -68 -75h-117z" />
<glyph unicode="&#xd6;" horiz-adv-x="1592" d="M77 735q0 349 199.5 566t521.5 217q328 0 525 -216.5t197 -577.5q0 -162 -50.5 -302.5t-142 -244.5t-228 -164t-300.5 -60q-323 0 -522.5 216t-199.5 566zM267 735q0 -276 146.5 -445t385.5 -169q237 0 384 167.5t147 437.5q0 283 -145.5 453t-386.5 170 q-238 0 -384.5 -169t-146.5 -445zM524 1642v209h213v-209h-213zM857 1642v209h212v-209h-212z" />
<glyph unicode="&#xd7;" horiz-adv-x="1195" d="M193 172l303 300l-299 301l101 100l297 -297l302 298l100 -101l-298 -301l300 -300l-102 -103l-302 302l-297 -300z" />
<glyph unicode="&#xd8;" horiz-adv-x="1592" d="M61 39l165 182q-156 221 -155 516q0 230 90 407.5t254.5 275.5t376.5 98q279 0 472 -166l178 193l81 -73l-183 -198q173 -215 173 -541q0 -349 -199 -564.5t-522 -215.5q-292 0 -493 184l-157 -172zM262 737q0 -213 94 -376l786 856q-148 132 -350 132q-238 0 -384 -169 t-146 -443zM422 273q149 -152 370 -152q239 0 385 168t146 444q0 231 -108 401z" />
<glyph unicode="&#xd9;" horiz-adv-x="1477" d="M175 445v1049h189v-1049q0 -163 104 -243.5t277 -80.5q180 0 283 86.5t103 237.5v1049h191v-1049q0 -225 -157 -358.5t-420 -133.5q-265 0 -417.5 132t-152.5 360zM453 1923h230l197 -303h-123z" />
<glyph unicode="&#xda;" horiz-adv-x="1477" d="M175 445v1049h189v-1049q0 -163 104 -243.5t277 -80.5q180 0 283 86.5t103 237.5v1049h191v-1049q0 -225 -157 -358.5t-420 -133.5q-265 0 -417.5 132t-152.5 360zM596 1620l196 303h232l-305 -303h-123z" />
<glyph unicode="&#xdb;" horiz-adv-x="1477" d="M175 445v1049h189v-1049q0 -163 104 -243.5t277 -80.5q180 0 283 86.5t103 237.5v1049h191v-1049q0 -225 -157 -358.5t-420 -133.5q-265 0 -417.5 132t-152.5 360zM455 1615l197 308h193l197 -308h-128l-166 196l-162 -196h-131z" />
<glyph unicode="&#xdc;" horiz-adv-x="1477" d="M175 445v1049h189v-1049q0 -163 104 -243.5t277 -80.5q180 0 283 86.5t103 237.5v1049h191v-1049q0 -225 -157 -358.5t-420 -133.5q-265 0 -417.5 132t-152.5 360zM475 1642v209h213v-209h-213zM808 1642v209h212v-209h-212z" />
<glyph unicode="&#xdd;" horiz-adv-x="1365" d="M27 1494h235l439 -728l425 728h228l-562 -908v-586h-190v586zM552 1620l196 303h232l-305 -303h-123z" />
<glyph unicode="&#xde;" horiz-adv-x="1363" d="M185 0v1494h192v-246h426q213 0 336 -116t123 -318q0 -188 -116 -307t-299 -119h-470v-388h-192zM377 554h397q134 0 208.5 70t74.5 193t-74.5 192.5t-208.5 69.5h-397v-525z" />
<glyph unicode="&#xdf;" horiz-adv-x="1250" d="M137 0v1090q0 181 124 290.5t349 109.5q226 0 358 -100t132 -268q0 -57 -14 -106t-30.5 -78t-45 -57t-43 -38t-36.5 -24q107 -28 172 -133t65 -207q0 -132 -38.5 -231.5t-109 -159.5t-162.5 -89t-205 -29q-40 0 -108 14v153q76 -6 90 -6q170 0 259 77.5t89 229.5 q0 154 -90.5 220.5t-257.5 66.5h-33v149q171 0 244.5 65t73.5 167q0 104 -80.5 167t-230.5 63q-164 0 -228.5 -74.5t-64.5 -217.5v-1044h-179z" />
<glyph unicode="&#xe0;" d="M86 271q0 180 126 255q86 52 294 82q30 3 113 14q101 13 140 39t39 81v44q0 76 -63 118.5t-177 42.5q-121 0 -181.5 -46.5t-70.5 -143.5h-172q2 83 30 146.5t69 100.5t99 60.5t112.5 31.5t117.5 8q199 0 302 -74.5t103 -218.5v-631q0 -40 24 -62t68 -22q18 0 36 5v-129 q-67 -18 -117 -19q-83 0 -124.5 38.5t-50.5 118.5q-90 -83 -177 -120t-188 -37q-163 0 -257.5 85.5t-94.5 232.5zM265 274q0 -81 55.5 -126.5t155.5 -45.5q141 0 231.5 75.5t90.5 161.5v191q-44 -20 -121 -33t-144 -23.5t-130 -29t-100.5 -61t-37.5 -109.5zM280 1516h230 l197 -303h-123z" />
<glyph unicode="&#xe1;" d="M86 271q0 180 126 255q86 52 294 82q30 3 113 14q101 13 140 39t39 81v44q0 76 -63 118.5t-177 42.5q-121 0 -181.5 -46.5t-70.5 -143.5h-172q2 83 30 146.5t69 100.5t99 60.5t112.5 31.5t117.5 8q199 0 302 -74.5t103 -218.5v-631q0 -40 24 -62t68 -22q18 0 36 5v-129 q-67 -18 -117 -19q-83 0 -124.5 38.5t-50.5 118.5q-90 -83 -177 -120t-188 -37q-163 0 -257.5 85.5t-94.5 232.5zM265 274q0 -81 55.5 -126.5t155.5 -45.5q141 0 231.5 75.5t90.5 161.5v191q-44 -20 -121 -33t-144 -23.5t-130 -29t-100.5 -61t-37.5 -109.5zM423 1211 l196 302h232l-305 -302h-123z" />
<glyph unicode="&#xe2;" d="M86 271q0 180 126 255q86 52 294 82q30 3 113 14q101 13 140 39t39 81v44q0 76 -63 118.5t-177 42.5q-121 0 -181.5 -46.5t-70.5 -143.5h-172q2 83 30 146.5t69 100.5t99 60.5t112.5 31.5t117.5 8q199 0 302 -74.5t103 -218.5v-631q0 -40 24 -62t68 -22q18 0 36 5v-129 q-67 -18 -117 -19q-83 0 -124.5 38.5t-50.5 118.5q-90 -83 -177 -120t-188 -37q-163 0 -257.5 85.5t-94.5 232.5zM265 274q0 -81 55.5 -126.5t155.5 -45.5q141 0 231.5 75.5t90.5 161.5v191q-44 -20 -121 -33t-144 -23.5t-130 -29t-100.5 -61t-37.5 -109.5zM271 1209 l197 309h193l197 -309h-129l-166 197l-161 -197h-131z" />
<glyph unicode="&#xe3;" d="M86 271q0 180 126 255q86 52 294 82q30 3 113 14q101 13 140 39t39 81v44q0 76 -63 118.5t-177 42.5q-121 0 -181.5 -46.5t-70.5 -143.5h-172q2 83 30 146.5t69 100.5t99 60.5t112.5 31.5t117.5 8q199 0 302 -74.5t103 -218.5v-631q0 -40 24 -62t68 -22q18 0 36 5v-129 q-67 -18 -117 -19q-83 0 -124.5 38.5t-50.5 118.5q-90 -83 -177 -120t-188 -37q-163 0 -257.5 85.5t-94.5 232.5zM243 1229q16 101 62 156t113 55q52 0 142.5 -38t130.5 -38q52 0 76 76h118q-28 -213 -182 -212q-40 0 -143 38t-131 38q-47 0 -68 -75h-118zM265 274 q0 -81 55.5 -126.5t155.5 -45.5q141 0 231.5 75.5t90.5 161.5v191q-44 -20 -121 -33t-144 -23.5t-130 -29t-100.5 -61t-37.5 -109.5z" />
<glyph unicode="&#xe4;" d="M86 271q0 180 126 255q86 52 294 82q30 3 113 14q101 13 140 39t39 81v44q0 76 -63 118.5t-177 42.5q-121 0 -181.5 -46.5t-70.5 -143.5h-172q2 83 30 146.5t69 100.5t99 60.5t112.5 31.5t117.5 8q199 0 302 -74.5t103 -218.5v-631q0 -40 24 -62t68 -22q18 0 36 5v-129 q-67 -18 -117 -19q-83 0 -124.5 38.5t-50.5 118.5q-90 -83 -177 -120t-188 -37q-163 0 -257.5 85.5t-94.5 232.5zM265 274q0 -81 55.5 -126.5t155.5 -45.5q141 0 231.5 75.5t90.5 161.5v191q-44 -20 -121 -33t-144 -23.5t-130 -29t-100.5 -61t-37.5 -109.5zM291 1227v209 h213v-209h-213zM624 1227v209h212v-209h-212z" />
<glyph unicode="&#xe5;" d="M86 271q0 180 126 255q86 52 294 82q30 3 113 14q101 13 140 39t39 81v44q0 76 -63 118.5t-177 42.5q-121 0 -181.5 -46.5t-70.5 -143.5h-172q2 83 30 146.5t69 100.5t99 60.5t112.5 31.5t117.5 8q199 0 302 -74.5t103 -218.5v-631q0 -40 24 -62t68 -22q18 0 36 5v-129 q-67 -18 -117 -19q-83 0 -124.5 38.5t-50.5 118.5q-90 -83 -177 -120t-188 -37q-163 0 -257.5 85.5t-94.5 232.5zM265 274q0 -81 55.5 -126.5t155.5 -45.5q141 0 231.5 75.5t90.5 161.5v191q-44 -20 -121 -33t-144 -23.5t-130 -29t-100.5 -61t-37.5 -109.5zM382 1365.5 q0 72.5 53.5 125.5t126.5 53q75 0 127.5 -52.5t52.5 -127.5q0 -74 -53 -126t-127 -52q-73 0 -126.5 53.5t-53.5 126zM472 1365.5q0 -36.5 27 -63.5t63 -27t63 26.5t27 62.5q0 38 -25.5 64t-64.5 26q-36 0 -63 -26t-27 -62.5z" />
<glyph unicode="&#xe6;" horiz-adv-x="1819" d="M69 271q0 79 27 136.5t69.5 94t114.5 61t145 36.5t177 21q105 10 142 36t37 86v44q0 77 -62.5 119t-180.5 42t-178.5 -46.5t-70.5 -143.5h-172q3 83 31 146.5t69 100.5t98.5 60.5t112 31.5t116.5 8q262 0 357 -168q56 77 150.5 122.5t204.5 45.5q148 0 263.5 -76 t167.5 -207q44 -115 45 -342h-792q2 -86 23.5 -153t53.5 -106.5t74.5 -65t82.5 -35t82 -9.5q206 0 281 215h172q-32 -174 -153 -273t-302 -99q-119 0 -215 44.5t-150 125.5q-16 27 -33 54q-115 -118 -218.5 -171t-223.5 -53q-157 0 -251 86.5t-94 231.5zM248 274 q0 -80 54.5 -126t150.5 -46q76 0 142 27.5t104 65.5t60 73t22 54v206q-52 -23 -132 -37t-145 -23t-126 -27t-95.5 -59t-34.5 -108zM944 619h601q0 146 -82 237t-213 91q-129 0 -212.5 -89.5t-93.5 -238.5z" />
<glyph unicode="&#xe7;" horiz-adv-x="1024" d="M63 519q0 266 130 425.5t347 159.5q187 0 298 -101t126 -291h-172q-15 113 -80.5 174t-173.5 61q-139 0 -218 -114t-79 -316q0 -191 80.5 -299.5t222.5 -108.5q217 0 262 260h171q-11 -192 -129.5 -304t-307.5 -112l-27 -68q31 5 58 5q77 0 119.5 -36.5t42.5 -101.5 q0 -88 -68.5 -139t-184.5 -51q-58 0 -107 13t-148 54l42 84q40 -22 96 -45t107 -23q47 0 78 26.5t31 66.5q0 34 -25 55.5t-68 21.5q-28 0 -64 -18l-25 14l65 146q-80 15 -143.5 49t-104.5 75.5t-71 95.5t-45 100t-23.5 99.5t-10 82.5t-1.5 60z" />
<glyph unicode="&#xe8;" d="M82 521q0 265 133.5 424t357.5 159q150 0 266 -75.5t169 -207.5q43 -116 43 -342h-792q2 -81 14.5 -132t42.5 -97q89 -140 260 -140q207 0 280 215h173q-33 -174 -154.5 -273t-305.5 -99q-226 0 -356.5 152t-130.5 416zM265 619h601q2 3 2 11q0 133 -85.5 225t-211.5 92 q-130 0 -213 -89.5t-93 -238.5zM287 1516h230l196 -303h-122z" />
<glyph unicode="&#xe9;" d="M82 521q0 265 133.5 424t357.5 159q150 0 266 -75.5t169 -207.5q43 -116 43 -342h-792q2 -81 14.5 -132t42.5 -97q89 -140 260 -140q207 0 280 215h173q-33 -174 -154.5 -273t-305.5 -99q-226 0 -356.5 152t-130.5 416zM265 619h601q2 3 2 11q0 133 -85.5 225t-211.5 92 q-130 0 -213 -89.5t-93 -238.5zM435 1211l195 302h232l-304 -302h-123z" />
<glyph unicode="&#xea;" d="M82 521q0 265 133.5 424t357.5 159q150 0 266 -75.5t169 -207.5q43 -116 43 -342h-792q2 -81 14.5 -132t42.5 -97q89 -140 260 -140q207 0 280 215h173q-33 -174 -154.5 -273t-305.5 -99q-226 0 -356.5 152t-130.5 416zM265 619h601q2 3 2 11q0 133 -85.5 225t-211.5 92 q-130 0 -213 -89.5t-93 -238.5zM292 1212l197 308h194l197 -308h-129l-166 197l-162 -197h-131z" />
<glyph unicode="&#xeb;" d="M82 521q0 265 133.5 424t357.5 159q150 0 266 -75.5t169 -207.5q43 -116 43 -342h-792q2 -81 14.5 -132t42.5 -97q89 -140 260 -140q207 0 280 215h173q-33 -174 -154.5 -273t-305.5 -99q-226 0 -356.5 152t-130.5 416zM265 619h601q2 3 2 11q0 133 -85.5 225t-211.5 92 q-130 0 -213 -89.5t-93 -238.5zM301 1227v209h213v-209h-213zM634 1227v209h212v-209h-212z" />
<glyph unicode="&#xec;" horiz-adv-x="568" d="M-8 1511h230l197 -303h-123zM192 0v1073h171v-1073h-171z" />
<glyph unicode="&#xed;" horiz-adv-x="568" d="M134 1211l196 302h232l-305 -302h-123zM192 0v1073h171v-1073h-171z" />
<glyph unicode="&#xee;" horiz-adv-x="568" d="M-14 1209l197 309h194l196 -309h-128l-166 197l-162 -197h-131zM192 0v1073h171v-1073h-171z" />
<glyph unicode="&#xef;" horiz-adv-x="568" d="M6 1227v209h213v-209h-213zM192 0v1073h171v-1073h-171zM339 1227v209h212v-209h-212z" />
<glyph unicode="&#xf0;" d="M74 528q0 131 29.5 234.5t75.5 165.5t107 102.5t118.5 55t115.5 14.5q47 0 130 -27q-81 81 -202 183l-198 -93l-74 79l173 82q-52 42 -166 107l90 90q75 -31 226 -128l200 93l82 -77l-186 -85q41 -31 71.5 -55t81 -71.5t87.5 -91.5t78.5 -109.5t68 -133t44.5 -154.5 t18 -179q0 -276 -126.5 -426.5t-357.5 -150.5q-232 0 -359 150.5t-127 424.5zM251 528q0 -193 82.5 -305.5t226.5 -112.5q141 0 223.5 111t82.5 300q0 201 -81.5 313.5t-225 112.5t-226 -113t-82.5 -306z" />
<glyph unicode="&#xf1;" d="M143 0v1073h157v-180q72 113 154.5 162t203.5 49q155 0 247 -80t92 -213v-811h-170v743q0 98 -59.5 155t-161.5 57q-132 0 -211.5 -99t-79.5 -263v-593h-172zM249 1229q16 101 61.5 156t112.5 55q52 0 142.5 -38t130.5 -38q52 0 77 76h118q-28 -213 -182 -212 q-40 0 -143 38t-131 38q-47 0 -69 -75h-117z" />
<glyph unicode="&#xf2;" d="M74 528q0 270 129.5 423t354.5 153q231 0 358.5 -153t127.5 -431q0 -264 -129.5 -415.5t-354.5 -151.5q-229 0 -357.5 152.5t-128.5 422.5zM251 528q0 -195 82.5 -306.5t226.5 -111.5q141 0 223.5 111t82.5 300q0 201 -81.5 313.5t-225 112.5t-226 -113t-82.5 -306z M270 1518h229l197 -303h-123z" />
<glyph unicode="&#xf3;" d="M74 528q0 270 129.5 423t354.5 153q231 0 358.5 -153t127.5 -431q0 -264 -129.5 -415.5t-354.5 -151.5q-229 0 -357.5 152.5t-128.5 422.5zM251 528q0 -195 82.5 -306.5t226.5 -111.5q141 0 223.5 111t82.5 300q0 201 -81.5 313.5t-225 112.5t-226 -113t-82.5 -306z M414 1213l196 303h232l-305 -303h-123z" />
<glyph unicode="&#xf4;" d="M74 528q0 270 129.5 423t354.5 153q231 0 358.5 -153t127.5 -431q0 -264 -129.5 -415.5t-354.5 -151.5q-229 0 -357.5 152.5t-128.5 422.5zM251 528q0 -195 82.5 -306.5t226.5 -111.5q141 0 223.5 111t82.5 300q0 201 -81.5 313.5t-225 112.5t-226 -113t-82.5 -306z M266 1212l197 308h193l197 -308h-128l-166 197l-162 -197h-131z" />
<glyph unicode="&#xf5;" d="M74 528q0 270 129.5 423t354.5 153q231 0 358.5 -153t127.5 -431q0 -264 -129.5 -415.5t-354.5 -151.5q-229 0 -357.5 152.5t-128.5 422.5zM237 1229q16 101 61.5 156t112.5 55q52 0 142.5 -38t130.5 -38q52 0 76 76h118q-28 -213 -182 -212q-40 0 -142.5 38t-131.5 38 q-47 0 -68 -75h-117zM251 528q0 -195 82.5 -306.5t226.5 -111.5q141 0 223.5 111t82.5 300q0 201 -81.5 313.5t-225 112.5t-226 -113t-82.5 -306z" />
<glyph unicode="&#xf6;" d="M74 528q0 270 129.5 423t354.5 153q231 0 358.5 -153t127.5 -431q0 -264 -129.5 -415.5t-354.5 -151.5q-229 0 -357.5 152.5t-128.5 422.5zM251 528q0 -195 82.5 -306.5t226.5 -111.5q141 0 223.5 111t82.5 300q0 201 -81.5 313.5t-225 112.5t-226 -113t-82.5 -306z M285 1227v209h213v-209h-213zM618 1227v209h212v-209h-212z" />
<glyph unicode="&#xf7;" horiz-adv-x="1195" d="M102 412v142h991v-142h-991zM492 0v213h212v-213h-212zM492 753v214h212v-214h-212z" />
<glyph unicode="&#xf8;" horiz-adv-x="1250" d="M36 -5l136 153q-98 143 -98 380q0 270 129 423t357 153q206 0 339 -133l119 133l66 -58l-129 -145q90 -150 89 -373q0 -270 -128 -422.5t-355 -152.5q-212 0 -335 127l-124 -141zM251 528q1 -137 44 -239l489 551q-40 50 -98.5 78.5t-125.5 28.5q-143 0 -226 -113 t-83 -306zM341 209q91 -99 219 -99q142 0 224 112.5t82 305.5q0 139 -35 231z" />
<glyph unicode="&#xf9;" d="M134 246v827h169v-759q0 -97 60 -154.5t162 -57.5q133 0 212.5 99t79.5 263v609h171v-1073h-155v150q-75 -107 -157 -152t-200 -45q-157 0 -249.5 80t-92.5 213zM266 1513h230l197 -302h-123z" />
<glyph unicode="&#xfa;" d="M134 246v827h169v-759q0 -97 60 -154.5t162 -57.5q133 0 212.5 99t79.5 263v609h171v-1073h-155v150q-75 -107 -157 -152t-200 -45q-157 0 -249.5 80t-92.5 213zM410 1213l195 303h232l-305 -303h-122z" />
<glyph unicode="&#xfb;" d="M134 246v827h169v-759q0 -97 60 -154.5t162 -57.5q133 0 212.5 99t79.5 263v609h171v-1073h-155v150q-75 -107 -157 -152t-200 -45q-157 0 -249.5 80t-92.5 213zM267 1212l197 308h194l196 -308h-128l-166 197l-162 -197h-131z" />
<glyph unicode="&#xfc;" d="M134 246v827h169v-759q0 -97 60 -154.5t162 -57.5q133 0 212.5 99t79.5 263v609h171v-1073h-155v150q-75 -107 -157 -152t-200 -45q-157 0 -249.5 80t-92.5 213zM286 1227v209h213v-209h-213zM619 1227v209h212v-209h-212z" />
<glyph unicode="&#xfd;" horiz-adv-x="1024" d="M41 1073h183l273 -835l297 835h184l-475 -1298q-85 -221 -278 -221q-65 0 -115 25v155q59 -13 90 -13q55 0 85.5 23.5t53.5 80.5l65 170zM355 1211l196 302h232l-305 -302h-123z" />
<glyph unicode="&#xfe;" horiz-adv-x="1135" d="M110 -446v1908h171v-522q56 79 141 121.5t188 42.5q209 0 334.5 -159.5t125.5 -425.5q0 -257 -126 -411.5t-334 -154.5q-104 0 -183 38.5t-146 120.5v-558h-171zM281 528q0 -190 81.5 -303t216.5 -113q140 0 225.5 113.5t85.5 295.5q0 192 -85 307.5t-226 115.5 q-135 0 -216.5 -113t-81.5 -303z" />
<glyph unicode="&#xff;" horiz-adv-x="1024" d="M41 1073h183l273 -835l297 835h184l-475 -1298q-85 -221 -278 -221q-65 0 -115 25v155q59 -13 90 -13q55 0 85.5 23.5t53.5 80.5l65 170zM237 1227v209h213v-209h-213zM570 1227v209h212v-209h-212z" />
<glyph unicode="&#x152;" horiz-adv-x="2048" d="M88 729q0 181 40 323.5t103.5 227.5t147.5 141t162.5 76.5t159.5 20.5q247 0 375 -180v156h878v-170h-689v-485h673v-170h-673v-501h699v-168h-888v151q-72 -99 -162.5 -145.5t-214.5 -46.5q-82 0 -161 20t-163 74t-146 137.5t-101.5 222.5t-39.5 316zM279 737 q0 -125 18 -224.5t51 -164.5t73 -110t89.5 -68t94.5 -33t94 -10q256 0 377 246v731q-122 246 -375 245q-63 0 -117.5 -13.5t-112.5 -54.5t-99 -106.5t-67 -177.5t-26 -260z" />
<glyph unicode="&#x153;" horiz-adv-x="1933" d="M82 530q0 274 127 424t359 150q278 0 401 -217q63 102 167 159.5t228 57.5q150 0 265.5 -75.5t168.5 -207.5q43 -108 43 -342h-790q1 -85 23 -152.5t53.5 -107t75 -65t82.5 -35t80 -9.5q210 0 281 215h172q-33 -174 -153.5 -273t-301.5 -99q-131 0 -234.5 55t-164.5 156 q-125 -210 -396 -211q-232 0 -359 150.5t-127 426.5zM259 530q0 -197 82.5 -308.5t226.5 -111.5q142 0 224 111t82 304q0 199 -81.5 310.5t-225 111.5t-226 -111t-82.5 -306zM1054 619h604q0 146 -82.5 237t-212.5 91t-213 -89.5t-96 -238.5z" />
<glyph unicode="&#x178;" horiz-adv-x="1365" d="M27 1494h235l439 -728l425 728h228l-562 -908v-586h-190v586zM417 1642v209h213v-209h-213zM750 1642v209h212v-209h-212z" />
<glyph unicode="&#x2000;" horiz-adv-x="975" />
<glyph unicode="&#x2001;" horiz-adv-x="1951" />
<glyph unicode="&#x2002;" horiz-adv-x="975" />
<glyph unicode="&#x2003;" horiz-adv-x="1951" />
<glyph unicode="&#x2004;" horiz-adv-x="650" />
<glyph unicode="&#x2005;" horiz-adv-x="487" />
<glyph unicode="&#x2006;" horiz-adv-x="325" />
<glyph unicode="&#x2007;" horiz-adv-x="325" />
<glyph unicode="&#x2008;" horiz-adv-x="243" />
<glyph unicode="&#x2009;" horiz-adv-x="390" />
<glyph unicode="&#x200a;" horiz-adv-x="108" />
<glyph unicode="&#x2010;" horiz-adv-x="680" d="M94 492v147h487v-147h-487z" />
<glyph unicode="&#x2011;" horiz-adv-x="680" d="M94 492v147h487v-147h-487z" />
<glyph unicode="&#x2012;" horiz-adv-x="680" d="M94 492v147h487v-147h-487z" />
<glyph unicode="&#x2013;" horiz-adv-x="1217" d="M94 492v147h1024v-147h-1024z" />
<glyph unicode="&#x2014;" horiz-adv-x="2241" d="M94 492v147h2048v-147h-2048z" />
<glyph unicode="&#x202f;" horiz-adv-x="390" />
<glyph unicode="&#x205f;" horiz-adv-x="487" />
<glyph unicode="&#xe000;" horiz-adv-x="1075" d="M0 0v1075h1075v-1075h-1075z" />
<glyph unicode="&#xfb01;" horiz-adv-x="749" d="M18 684v102h105v134q0 83 49 131q49 47 136 47q33 0 70 -8v-104q-27 1 -43 2q-86 0 -87 -79v-123h130v-102h-130v-684h-125v684h-105zM530 0v786h124v-786h-124zM530 936v159h124v-159h-124z" />
<glyph unicode="&#xfb02;" horiz-adv-x="749" d="M26 684v102h104v134q0 83 49 131q49 47 136 47q32 0 71 -8v-104q-28 1 -44 2q-88 0 -87 -79v-123h131v-102h-131v-684h-125v684h-104zM520 0v1095h125v-1095h-125z" />
<glyph unicode="&#xfb03;" horiz-adv-x="1166" d="M27 684v102h105v134q0 83 49 131q49 47 135 47q32 0 71 -8v-104q-28 1 -43 2q-88 0 -88 -79v-123h131v-102h-131v-684h-124v684h-105zM435 684v102h105v134q0 83 49 131q49 47 135 47q32 0 71 -8v-104q-30 1 -43 2q-88 0 -88 -79v-123h131v-102h-131v-684h-124v684h-105z M945 0v786h126v-786h-126zM945 936v159h126v-159h-126z" />
<glyph unicode="&#xfb04;" horiz-adv-x="1166" d="M27 684v102h105v134q0 83 49 131q49 47 135 47q32 0 71 -8v-104q-28 1 -43 2q-88 0 -88 -79v-123h131v-102h-131v-684h-124v684h-105zM441 684v102h107v134q0 83 48 131q49 47 136 47q33 0 70 -8v-104q-28 1 -43 2q-86 0 -87 -79v-123h130v-102h-130v-684h-124v684h-107z M938 0v1095h124v-1095h-124z" />
</font>
</defs>
</svg>
